<svg xmlns="http://www.w3.org/2000/svg" width="688" height="685" viewBox="0 0 3.129254 3.114413">
<rect x="0" y="0" width="3.129254" height="3.114413" fill="white"/>
<polyline points="0.78047,1.368074 1.524988,2.112592 1.524988,2.113413" fill="none" stroke="#4d7fc4" stroke-width="0.15" stroke-linecap="round" stroke-linejoin="round"/>
<polyline points="2.133199,0.778801 2.654254,1.299856 2.654254,1.746664 1.761505,2.639413 1.296356,2.639413 0.775,2.118057" fill="none" stroke="#4d7fc4" stroke-width="0.15" stroke-linecap="round" stroke-linejoin="round"/>
<polyline points="1.383205,0.775 2.128254,1.520049 2.128254,1.528787" fill="none" stroke="#4d7fc4" stroke-width="0.15" stroke-linecap="round" stroke-linejoin="round"/>
<circle cx="0.78047" cy="1.368074" r="0.3" fill="rgba(231, 76, 60, 1)" stroke="#e74c3c" stroke-width="0.075"/>
<circle cx="0.78047" cy="1.368074" r="0.12" fill="#ffffff"/>
<circle cx="1.524988" cy="2.113413" r="0.3" fill="rgba(231, 76, 60, 1)" stroke="#e74c3c" stroke-width="0.075"/>
<circle cx="1.524988" cy="2.113413" r="0.12" fill="#ffffff"/>
<circle cx="2.133199" cy="0.778801" r="0.3" fill="rgba(46, 204, 113, 1)" stroke="#2ecc71" stroke-width="0.075"/>
<circle cx="2.133199" cy="0.778801" r="0.12" fill="#ffffff"/>
<circle cx="0.775" cy="2.118057" r="0.3" fill="rgba(46, 204, 113, 1)" stroke="#2ecc71" stroke-width="0.075"/>
<circle cx="0.775" cy="2.118057" r="0.12" fill="#ffffff"/>
<circle cx="1.383205" cy="0.775" r="0.3" fill="rgba(241, 196, 15, 1)" stroke="#f1c40f" stroke-width="0.075"/>
<circle cx="1.383205" cy="0.775" r="0.12" fill="#ffffff"/>
<circle cx="2.128254" cy="1.528787" r="0.3" fill="rgba(241, 196, 15, 1)" stroke="#f1c40f" stroke-width="0.075"/>
<circle cx="2.128254" cy="1.528787" r="0.12" fill="#ffffff"/>
</svg>
