<svg xmlns="http://www.w3.org/2000/svg" width="1179" height="1234" viewBox="0 0 5.357664 5.610103">
<rect x="0" y="0" width="5.357664" height="5.610103" fill="white"/>
<polyline points="4.158834,2.278271 3.99205,2.111487 4.100309,2.111487 4.437721,1.774075 4.437721,1.296899 4.100309,0.959487 3.941397,0.959487 3.456911,0.475 2.688957,0.475 1.921934,1.242024 1.921934,1.500192 1.971934,1.550192 1.971934,1.660567" fill="none" stroke="#4d7fc4" stroke-width="0.15" stroke-linecap="round" stroke-linejoin="round"/>
<polyline points="1.875,4.753962 0.968395,4.753962 0.475,4.260567 0.475,1.957526 1.071959,1.360567 1.158243,1.360567 1.244527,1.274283 1.696025,1.274283 1.971934,1.550192 1.971934,1.660567" fill="none" stroke="#4d7fc4" stroke-width="0.15" stroke-linecap="round" stroke-linejoin="round"/>
<polyline points="1.559246,3.659944 1.910625,3.308565 2.038809,3.308565 2.306864,3.04051 2.306864,3.039096 3.231834,2.114126 3.072934,1.955226 3.072934,1.402" fill="none" stroke="#4d7fc4" stroke-width="0.15" stroke-linecap="round" stroke-linejoin="round"/>
<polyline points="3.943717,4.559103 4.080649,4.422171 4.068076,4.422171 3.730664,4.084759 3.730664,3.766559 3.231834,3.267729 3.231834,2.114126 3.072934,1.955226 3.072934,1.402" fill="none" stroke="#4d7fc4" stroke-width="0.15" stroke-linecap="round" stroke-linejoin="round"/>
<polyline points="3.861721,1.535487 3.582834,1.814374 3.582834,3.122341 4.319258,3.858765 4.330408,3.858765" fill="none" stroke="#4d7fc4" stroke-width="0.15" stroke-linecap="round" stroke-linejoin="round"/>
<polyline points="3.861721,1.535487 3.861721,1.376199 3.311522,0.826 2.834346,0.826 2.73739,0.922957 2.496934,1.163412 2.496934,2.035852 1.632126,2.90066 1.505295,2.90066 1.465202,2.860567 1.4,2.860567" fill="none" stroke="#4d7fc4" stroke-width="0.15" stroke-linecap="round" stroke-linejoin="round"/>
<polyline points="4.228029,3.025072 4.237188,3.034231 4.309312,3.034231 4.882664,3.607583 4.882664,4.084759 4.545252,4.422171 4.519717,4.422171 4.519717,4.797691 4.182305,5.135103 3.705129,5.135103 3.367717,4.797691 3.367717,4.600101 3.150553,4.600101 3.145734,4.60492 3.130647,4.60492 2.97746,4.758107 2.928286,4.758107 2.897457,4.727278" fill="none" stroke="#4d7fc4" stroke-width="0.15" stroke-linecap="round" stroke-linejoin="round"/>
<polyline points="2.897457,4.727278 2.883345,4.727278 2.875,4.718933 2.875,4.060567 1.973211,4.060567 1.805816,4.227962 1.657123,4.227962 1.649141,4.235944 1.320658,4.235944 1.145281,4.060567 1.038006,4.060567 0.956503,3.979064 0.875,4.060567 0.875,3.897562 0.87497,3.897532 0.87497,3.420356 0.875,3.420326 0.875,1.983204 1.060839,1.797365 1.255294,1.99182" fill="none" stroke="#4d7fc4" stroke-width="0.15" stroke-linecap="round" stroke-linejoin="round"/>
<circle cx="4.158834" cy="2.278271" r="0.3" fill="rgba(46, 204, 113, 1)" stroke="#2ecc71" stroke-width="0.075"/>
<circle cx="4.158834" cy="2.278271" r="0.12" fill="#ffffff"/>
<circle cx="1.875" cy="4.753962" r="0.3" fill="rgba(46, 204, 113, 1)" stroke="#2ecc71" stroke-width="0.075"/>
<circle cx="1.875" cy="4.753962" r="0.12" fill="#ffffff"/>
<circle cx="1.971934" cy="1.660567" r="0.3" fill="rgba(46, 204, 113, 1)" stroke="#2ecc71" stroke-width="0.075"/>
<circle cx="1.971934" cy="1.660567" r="0.12" fill="#ffffff"/>
<circle cx="3.943717" cy="4.559103" r="0.3" fill="rgba(231, 76, 60, 1)" stroke="#e74c3c" stroke-width="0.075"/>
<circle cx="3.943717" cy="4.559103" r="0.12" fill="#ffffff"/>
<circle cx="1.559246" cy="3.659944" r="0.3" fill="rgba(231, 76, 60, 1)" stroke="#e74c3c" stroke-width="0.075"/>
<circle cx="1.559246" cy="3.659944" r="0.12" fill="#ffffff"/>
<circle cx="3.072934" cy="1.402" r="0.3" fill="rgba(231, 76, 60, 1)" stroke="#e74c3c" stroke-width="0.075"/>
<circle cx="3.072934" cy="1.402" r="0.12" fill="#ffffff"/>
<circle cx="3.861721" cy="1.535487" r="0.3" fill="rgba(241, 196, 15, 1)" stroke="#f1c40f" stroke-width="0.075"/>
<circle cx="3.861721" cy="1.535487" r="0.12" fill="#ffffff"/>
<circle cx="1.4" cy="2.860567" r="0.3" fill="rgba(241, 196, 15, 1)" stroke="#f1c40f" stroke-width="0.075"/>
<circle cx="1.4" cy="2.860567" r="0.12" fill="#ffffff"/>
<circle cx="4.330408" cy="3.858765" r="0.3" fill="rgba(241, 196, 15, 1)" stroke="#f1c40f" stroke-width="0.075"/>
<circle cx="4.330408" cy="3.858765" r="0.12" fill="#ffffff"/>
<circle cx="4.228029" cy="3.025072" r="0.3" fill="rgba(155, 89, 182, 1)" stroke="#9b59b6" stroke-width="0.075"/>
<circle cx="4.228029" cy="3.025072" r="0.12" fill="#ffffff"/>
<circle cx="2.897457" cy="4.727278" r="0.3" fill="rgba(155, 89, 182, 1)" stroke="#9b59b6" stroke-width="0.075"/>
<circle cx="2.897457" cy="4.727278" r="0.12" fill="#ffffff"/>
<circle cx="1.255294" cy="1.99182" r="0.3" fill="rgba(155, 89, 182, 1)" stroke="#9b59b6" stroke-width="0.075"/>
<circle cx="1.255294" cy="1.99182" r="0.12" fill="#ffffff"/>
</svg>
